<svg
                xmlns="http://www.w3.org/2000/svg"
                enable-background="new 0 0 24 24"
                width="70"
                height="70"
                preserveAspectRatio="xMinYMin meet"
                viewBox="0 0 24 24"
              >
                <path
                  fill="#E9BE08"
                  d="M22,0H2C0.896,0,0,0.895,0,2v20c0,1.105,0.896,2,2,2h20c1.104,0,2-0.895,2-2V2C24,0.895,23.104,0,22,0z M8.35,12.41c-0.38,0-0.51-0.017-0.775-0.017v3.842c0,0.083-0.033,0.116-0.115,0.116H5.916c-0.083,0-0.115-0.03-0.115-0.113V5.48H5.8c0-0.067,0.14-0.116,0.224-0.116c0.644-0.033,1.588-0.05,2.578-0.05c2.772,0,3.85,1.52,3.85,3.466C12.452,11.32,10.61,12.41,8.35,12.41z M15.555,16.502c-0.876,0-1.62-0.183-2.05-0.43c-0.065-0.033-0.08-0.082-0.08-0.165V14.44c0-0.1,0.048-0.133,0.114-0.084c0.624,0.413,1.352,0.594,2.012,0.594c0.792,0,1.122-0.33,1.122-0.776c0-0.363-0.23-0.677-1.237-1.205c-1.42-0.68-2.014-1.37-2.014-2.527c0-1.287,1.006-2.36,2.755-2.36c0.86,0,1.464,0.132,1.794,0.28c0.082,0.05,0.1,0.132,0.1,0.198v1.37c0,0.083-0.05,0.133-0.15,0.1c-0.444-0.264-1.1-0.43-1.743-0.43l0.004,0.004c-0.792,0-1.056,0.396-1.056,0.726c0,0.363,0.18,0.61,1.237,1.155c1.568,0.76,2.062,1.485,2.062,2.557C18.425,15.642,17.205,16.502,15.555,16.502z"
                />
                <path
                  fill="#E9BE08"
                  d="M8.533,6.898c-0.396,0-0.775,0.016-0.957,0.033v3.861c0.23,0.016,0.412,0.016,0.809,0.016c1.17,0,2.27-0.412,2.27-1.996C10.655,7.542,9.869,6.898,8.533,6.898z"
                />
              </svg>