<svg xmlns="http://www.w3.org/2000/svg" enable-background="new 0 0 26 16.318" viewBox="0 0 26 16.318"><path d="M10.535 7.278c0 0 2.377-.763 2.113-3.815C12.384.411 9.332 0 7.864 0H0v16.022l8.539 0c2.436-.352 4.989-1.555 4.871-4.842C13.293 7.894 10.535 7.278 10.535 7.278zM3.521 2.758c0 0 2.113 0 3.609 0s2.201.851 2.084 2.054S7.953 6.456 7.395 6.456c-.558 0-3.874 0-3.874 0V2.758zM7.512 13.293c-.91 0-3.991 0-3.991 0V8.862c0 0 2.7 0 3.903 0 1.203 0 2.348.469 2.465 2.201C10.007 12.794 8.422 13.293 7.512 13.293zM23.652 5.135C20.864 3.199 17.9 4.431 17.02 5.018c-.88.587-2.905 2.377-2.553 6.016.352 3.639 3.022 4.754 4.226 5.106 1.203.352 5.752.616 7.072-3.697H22.97c0 0-.726 1.585-2.531 1.453-1.805-.132-2.634-.748-2.802-2.949h8.334C25.97 10.946 26.44 7.072 23.652 5.135zM17.622 9.009c0 0-.044-2.531 2.685-2.531 2.421 0 2.509 2.531 2.509 2.531H17.622z"/><rect width="6.427" height="1.614" x="16.991" y="1"/></svg>